<svg width="1600" height="1000" viewBox="0 0 1600 1000" fill="none" xmlns="http://www.w3.org/2000/svg">
  <defs>
    <linearGradient id="bg" x1="0" y1="0" x2="1600" y2="1000" gradientUnits="userSpaceOnUse">
      <stop stop-color="#FFFFFF"/>
      <stop offset="0.5" stop-color="#F3F7FB"/>
      <stop offset="1" stop-color="#EEF1F5"/>
    </linearGradient>
    <linearGradient id="felt" x1="292" y1="272" x2="1058" y2="724" gradientUnits="userSpaceOnUse">
      <stop stop-color="#052E2A"/>
      <stop offset="0.55" stop-color="#0B5D56"/>
      <stop offset="1" stop-color="#05070A"/>
    </linearGradient>
    <linearGradient id="gold" x1="340" y1="316" x2="1080" y2="760" gradientUnits="userSpaceOnUse">
      <stop stop-color="#FFD89A"/>
      <stop offset="0.55" stop-color="#FFB75E"/>
      <stop offset="1" stop-color="#FF6B35"/>
    </linearGradient>
    <radialGradient id="blue" cx="0" cy="0" r="1" gradientUnits="userSpaceOnUse" gradientTransform="translate(1180 228) rotate(132) scale(520 440)">
      <stop stop-color="#007AFF" stop-opacity="0.26"/>
      <stop offset="1" stop-color="#007AFF" stop-opacity="0"/>
    </radialGradient>
    <filter id="shadow" x="112" y="100" width="1376" height="840" filterUnits="userSpaceOnUse" color-interpolation-filters="sRGB">
      <feDropShadow dx="0" dy="46" stdDeviation="62" flood-color="#203044" flood-opacity="0.18"/>
    </filter>
    <filter id="card" x="0" y="0" width="200%" height="200%" color-interpolation-filters="sRGB">
      <feDropShadow dx="0" dy="24" stdDeviation="26" flood-color="#05070A" flood-opacity="0.22"/>
    </filter>
  </defs>
  <rect width="1600" height="1000" fill="url(#bg)"/>
  <rect width="1600" height="1000" fill="url(#blue)"/>
  <g filter="url(#shadow)">
    <rect x="180" y="150" width="1240" height="704" rx="62" fill="white" fill-opacity="0.74"/>
    <rect x="181" y="151" width="1238" height="702" rx="61" stroke="white" stroke-opacity="0.93" stroke-width="2"/>
  </g>
  <rect x="234" y="206" width="316" height="596" rx="42" fill="#05070A"/>
  <text x="282" y="300" fill="white" font-family="Instrument Sans, PingFang SC, sans-serif" font-size="56" font-weight="800" letter-spacing="-3">Texas</text>
  <text x="282" y="358" fill="white" font-family="Instrument Sans, PingFang SC, sans-serif" font-size="56" font-weight="800" letter-spacing="-3">Philosopher</text>
  <text x="286" y="408" fill="white" fill-opacity="0.54" font-family="IBM Plex Mono, monospace" font-size="15" font-weight="600" letter-spacing="3">TRAINING GAME</text>
  <rect x="282" y="486" width="210" height="64" rx="24" fill="#FF6B35" fill-opacity="0.88"/>
  <text x="314" y="526" fill="white" font-family="IBM Plex Mono, monospace" font-size="14" font-weight="800" letter-spacing="2">RISK DISCIPLINE</text>
  <rect x="282" y="584" width="184" height="44" rx="22" fill="white" fill-opacity="0.12"/>
  <rect x="282" y="654" width="222" height="44" rx="22" fill="white" fill-opacity="0.12"/>
  <rect x="282" y="724" width="146" height="44" rx="22" fill="#007AFF" fill-opacity="0.72"/>
  <rect x="610" y="242" width="570" height="420" rx="210" fill="url(#felt)"/>
  <rect x="646" y="278" width="498" height="348" rx="174" stroke="url(#gold)" stroke-width="8" opacity="0.9"/>
  <g filter="url(#card)">
    <rect x="734" y="324" width="122" height="174" rx="20" fill="white" transform="rotate(-8 734 324)"/>
    <rect x="872" y="306" width="122" height="174" rx="20" fill="white" transform="rotate(5 872 306)"/>
    <rect x="1006" y="340" width="122" height="174" rx="20" fill="white" transform="rotate(13 1006 340)"/>
  </g>
  <text x="760" y="420" fill="#05070A" font-family="Instrument Sans, sans-serif" font-size="58" font-weight="800" transform="rotate(-8 760 420)">A</text>
  <text x="900" y="404" fill="#FF6B35" font-family="Instrument Sans, sans-serif" font-size="58" font-weight="800" transform="rotate(5 900 404)">Φ</text>
  <text x="1032" y="438" fill="#007AFF" font-family="Instrument Sans, sans-serif" font-size="58" font-weight="800" transform="rotate(13 1032 438)">K</text>
  <circle cx="700" cy="494" r="34" fill="#FF6B35"/>
  <circle cx="1090" cy="494" r="34" fill="#007AFF"/>
  <rect x="614" y="702" width="238" height="78" rx="30" fill="white" fill-opacity="0.72"/>
  <text x="646" y="752" fill="#05070A" font-family="IBM Plex Mono, monospace" font-size="15" font-weight="800" letter-spacing="2">AI PERSONA: STOIC</text>
  <rect x="884" y="702" width="300" height="78" rx="30" fill="#FFF1E9"/>
  <text x="916" y="752" fill="#FF6B35" font-family="IBM Plex Mono, monospace" font-size="15" font-weight="800" letter-spacing="2">ROGUELIKE RUN · LEVEL 7</text>
  <rect x="1222" y="252" width="132" height="116" rx="30" fill="#FFFFFF" fill-opacity="0.76"/>
  <rect x="1254" y="296" width="66" height="12" rx="6" fill="#05070A" fill-opacity="0.18"/>
  <rect x="1254" y="330" width="42" height="12" rx="6" fill="#FF6B35" fill-opacity="0.54"/>
  <rect x="1222" y="408" width="132" height="116" rx="30" fill="#007AFF" fill-opacity="0.9"/>
  <rect x="1254" y="452" width="66" height="12" rx="6" fill="white" fill-opacity="0.42"/>
  <rect x="1254" y="486" width="42" height="12" rx="6" fill="white" fill-opacity="0.28"/>
  <rect x="1222" y="564" width="132" height="116" rx="30" fill="#FFFFFF" fill-opacity="0.58"/>
  <rect x="1254" y="608" width="66" height="12" rx="6" fill="#05070A" fill-opacity="0.14"/>
  <rect x="1254" y="642" width="42" height="12" rx="6" fill="#007AFF" fill-opacity="0.42"/>
  <text x="610" y="826" fill="#6E7681" font-family="Instrument Sans, PingFang SC, sans-serif" font-size="28" font-weight="750">Poker strategy as playable philosophy.</text>
</svg>
