<svg width="1600" height="1000" viewBox="0 0 1600 1000" fill="none" xmlns="http://www.w3.org/2000/svg">
  <defs>
    <linearGradient id="bg" x1="0" y1="0" x2="1600" y2="1000" gradientUnits="userSpaceOnUse">
      <stop stop-color="#FFFFFF"/>
      <stop offset="0.46" stop-color="#EEF6FF"/>
      <stop offset="1" stop-color="#F7F8FA"/>
    </linearGradient>
    <linearGradient id="dark" x1="232" y1="188" x2="720" y2="808" gradientUnits="userSpaceOnUse">
      <stop stop-color="#111318"/>
      <stop offset="1" stop-color="#05070A"/>
    </linearGradient>
    <linearGradient id="signal" x1="794" y1="222" x2="1250" y2="736" gradientUnits="userSpaceOnUse">
      <stop stop-color="#55C7FF"/>
      <stop offset="0.5" stop-color="#007AFF"/>
      <stop offset="1" stop-color="#143766"/>
    </linearGradient>
    <radialGradient id="warm" cx="0" cy="0" r="1" gradientUnits="userSpaceOnUse" gradientTransform="translate(1172 260) rotate(138) scale(540 430)">
      <stop stop-color="#FF6B35" stop-opacity="0.26"/>
      <stop offset="1" stop-color="#FF6B35" stop-opacity="0"/>
    </radialGradient>
    <filter id="shadow" x="112" y="92" width="1376" height="852" filterUnits="userSpaceOnUse" color-interpolation-filters="sRGB">
      <feDropShadow dx="0" dy="48" stdDeviation="64" flood-color="#203044" flood-opacity="0.18"/>
    </filter>
    <filter id="glow" x="0" y="0" width="200%" height="200%" color-interpolation-filters="sRGB">
      <feDropShadow dx="0" dy="0" stdDeviation="28" flood-color="#55C7FF" flood-opacity="0.38"/>
    </filter>
  </defs>
  <rect width="1600" height="1000" fill="url(#bg)"/>
  <rect width="1600" height="1000" fill="url(#warm)"/>
  <g filter="url(#shadow)">
    <rect x="180" y="144" width="1240" height="712" rx="62" fill="white" fill-opacity="0.74"/>
    <rect x="181" y="145" width="1238" height="710" rx="61" stroke="white" stroke-opacity="0.93" stroke-width="2"/>
  </g>
  <rect x="232" y="196" width="488" height="608" rx="46" fill="url(#dark)"/>
  <text x="288" y="304" fill="white" font-family="Instrument Sans, PingFang SC, sans-serif" font-size="78" font-weight="800" letter-spacing="-5">Hermes</text>
  <text x="292" y="356" fill="white" fill-opacity="0.54" font-family="IBM Plex Mono, monospace" font-size="16" font-weight="600" letter-spacing="3">AGENT COCKPIT</text>
  <g filter="url(#glow)">
    <path d="M304 528C358 440 430 440 484 528C538 616 610 616 664 528" stroke="#55C7FF" stroke-width="16" stroke-linecap="round"/>
    <path d="M304 594C358 506 430 506 484 594C538 682 610 682 664 594" stroke="#FF6B35" stroke-width="10" stroke-linecap="round" opacity="0.78"/>
  </g>
  <rect x="292" y="704" width="140" height="44" rx="22" fill="white" fill-opacity="0.14"/>
  <rect x="452" y="704" width="88" height="44" rx="22" fill="#55C7FF" fill-opacity="0.42"/>
  <rect x="560" y="704" width="86" height="44" rx="22" fill="#FF6B35" fill-opacity="0.76"/>
  <text x="318" y="732" fill="white" fill-opacity="0.72" font-family="IBM Plex Mono, monospace" font-size="12" font-weight="700" letter-spacing="2">VOICE</text>
  <text x="476" y="732" fill="white" fill-opacity="0.8" font-family="IBM Plex Mono, monospace" font-size="12" font-weight="700" letter-spacing="2">TASK</text>
  <text x="582" y="732" fill="white" fill-opacity="0.86" font-family="IBM Plex Mono, monospace" font-size="12" font-weight="700" letter-spacing="2">RUN</text>
  <rect x="770" y="196" width="544" height="174" rx="40" fill="url(#signal)"/>
  <text x="820" y="270" fill="white" font-family="Instrument Sans, PingFang SC, sans-serif" font-size="36" font-weight="800" letter-spacing="-2">Live Agent State</text>
  <rect x="820" y="306" width="250" height="14" rx="7" fill="white" fill-opacity="0.34"/>
  <rect x="820" y="336" width="356" height="12" rx="6" fill="white" fill-opacity="0.22"/>
  <circle cx="1242" cy="284" r="18" fill="white" fill-opacity="0.84"/>
  <rect x="770" y="414" width="250" height="164" rx="36" fill="white" fill-opacity="0.68"/>
  <rect x="814" y="470" width="138" height="16" rx="8" fill="#05070A" fill-opacity="0.18"/>
  <rect x="814" y="516" width="158" height="12" rx="6" fill="#007AFF" fill-opacity="0.28"/>
  <rect x="1050" y="414" width="264" height="164" rx="36" fill="white" fill-opacity="0.58"/>
  <rect x="1094" y="470" width="154" height="16" rx="8" fill="#05070A" fill-opacity="0.16"/>
  <rect x="1094" y="516" width="176" height="12" rx="6" fill="#FF6B35" fill-opacity="0.32"/>
  <rect x="770" y="622" width="544" height="146" rx="36" fill="white" fill-opacity="0.62"/>
  <text x="820" y="690" fill="#05070A" fill-opacity="0.72" font-family="Instrument Sans, PingFang SC, sans-serif" font-size="30" font-weight="750" letter-spacing="-1.5">Voice, state, tasks — one cockpit.</text>
  <rect x="820" y="724" width="340" height="12" rx="6" fill="#05070A" fill-opacity="0.12"/>
  <rect x="820" y="724" width="226" height="12" rx="6" fill="#007AFF" fill-opacity="0.42"/>
</svg>
