<svg width="1600" height="1000" viewBox="0 0 1600 1000" fill="none" xmlns="http://www.w3.org/2000/svg">
  <defs>
    <linearGradient id="bg" x1="0" y1="0" x2="1600" y2="1000" gradientUnits="userSpaceOnUse">
      <stop stop-color="#FFFFFF"/>
      <stop offset="0.48" stop-color="#EEF6FF"/>
      <stop offset="1" stop-color="#F7F8FA"/>
    </linearGradient>
    <linearGradient id="sidebar" x1="238" y1="194" x2="548" y2="806" gradientUnits="userSpaceOnUse">
      <stop stop-color="#111318"/>
      <stop offset="1" stop-color="#05070A"/>
    </linearGradient>
    <linearGradient id="orb" x1="770" y1="274" x2="1132" y2="700" gradientUnits="userSpaceOnUse">
      <stop stop-color="#55C7FF"/>
      <stop offset="0.46" stop-color="#007AFF"/>
      <stop offset="1" stop-color="#05070A"/>
    </linearGradient>
    <radialGradient id="warm" cx="0" cy="0" r="1" gradientUnits="userSpaceOnUse" gradientTransform="translate(1156 704) rotate(150) scale(430 330)">
      <stop stop-color="#FF6B35" stop-opacity="0.26"/>
      <stop offset="1" stop-color="#FF6B35" stop-opacity="0"/>
    </radialGradient>
    <radialGradient id="cool" cx="0" cy="0" r="1" gradientUnits="userSpaceOnUse" gradientTransform="translate(500 270) rotate(54) scale(540 430)">
      <stop stop-color="#007AFF" stop-opacity="0.22"/>
      <stop offset="1" stop-color="#007AFF" stop-opacity="0"/>
    </radialGradient>
    <filter id="panel" x="112" y="96" width="1376" height="844" filterUnits="userSpaceOnUse" color-interpolation-filters="sRGB">
      <feDropShadow dx="0" dy="46" stdDeviation="62" flood-color="#203044" flood-opacity="0.17"/>
    </filter>
    <filter id="soft" x="0" y="0" width="200%" height="200%" color-interpolation-filters="sRGB">
      <feDropShadow dx="0" dy="28" stdDeviation="36" flood-color="#007AFF" flood-opacity="0.22"/>
    </filter>
  </defs>
  <rect width="1600" height="1000" fill="url(#bg)"/>
  <rect width="1600" height="1000" fill="url(#cool)"/>
  <rect width="1600" height="1000" fill="url(#warm)"/>
  <g filter="url(#panel)">
    <rect x="180" y="146" width="1240" height="708" rx="62" fill="white" fill-opacity="0.74"/>
    <rect x="181" y="147" width="1238" height="706" rx="61" stroke="white" stroke-opacity="0.93" stroke-width="2"/>
  </g>
  <rect x="232" y="198" width="356" height="604" rx="44" fill="url(#sidebar)"/>
  <text x="282" y="286" fill="white" font-family="Instrument Sans, PingFang SC, sans-serif" font-size="64" font-weight="800" letter-spacing="-4">Void Brain</text>
  <text x="286" y="332" fill="white" fill-opacity="0.54" font-family="IBM Plex Mono, monospace" font-size="15" font-weight="600" letter-spacing="3">LOCAL KNOWLEDGE OS</text>
  <rect x="282" y="400" width="220" height="44" rx="22" fill="white" fill-opacity="0.14"/>
  <rect x="282" y="468" width="256" height="44" rx="22" fill="#007AFF" fill-opacity="0.9"/>
  <rect x="282" y="536" width="186" height="44" rx="22" fill="white" fill-opacity="0.1"/>
  <rect x="282" y="676" width="232" height="14" rx="7" fill="white" fill-opacity="0.2"/>
  <rect x="282" y="714" width="180" height="14" rx="7" fill="white" fill-opacity="0.14"/>
  <rect x="282" y="752" width="246" height="14" rx="7" fill="white" fill-opacity="0.14"/>
  <rect x="632" y="198" width="456" height="604" rx="44" fill="white" fill-opacity="0.66"/>
  <rect x="680" y="250" width="248" height="22" rx="11" fill="#05070A" fill-opacity="0.17"/>
  <rect x="680" y="318" width="328" height="18" rx="9" fill="#05070A" fill-opacity="0.1"/>
  <rect x="680" y="366" width="278" height="18" rx="9" fill="#05070A" fill-opacity="0.1"/>
  <rect x="680" y="414" width="352" height="18" rx="9" fill="#05070A" fill-opacity="0.1"/>
  <rect x="680" y="500" width="310" height="92" rx="26" fill="#EEF6FF"/>
  <text x="714" y="556" fill="#007AFF" font-family="IBM Plex Mono, monospace" font-size="15" font-weight="700" letter-spacing="2">RAG ANSWER · 6 CITATIONS</text>
  <rect x="680" y="636" width="340" height="92" rx="26" fill="#FFF1E9"/>
  <text x="714" y="692" fill="#FF6B35" font-family="IBM Plex Mono, monospace" font-size="15" font-weight="700" letter-spacing="2">EXPORT RESEARCH BRIEF</text>
  <g opacity="0.56">
    <circle cx="1116" cy="300" r="4" fill="#007AFF"/>
    <circle cx="1220" cy="388" r="4" fill="#007AFF"/>
    <circle cx="1154" cy="520" r="4" fill="#FF6B35"/>
    <circle cx="1288" cy="610" r="4" fill="#007AFF"/>
    <circle cx="1182" cy="706" r="4" fill="#FF6B35"/>
    <path d="M1116 300L1220 388L1154 520L1288 610L1182 706L1154 520L1116 300" stroke="#8EBFFF" stroke-width="2"/>
  </g>
  <g filter="url(#soft)">
    <circle cx="1198" cy="492" r="142" fill="url(#orb)"/>
  </g>
  <path d="M1134 470C1164 420 1240 416 1276 466C1318 524 1268 604 1190 592C1124 582 1098 530 1134 470Z" fill="white" fill-opacity="0.24"/>
  <path d="M1148 504C1194 478 1242 480 1280 512" stroke="white" stroke-width="10" stroke-linecap="round" opacity="0.52"/>
  <text x="1118" y="790" fill="#6E7681" font-family="Instrument Sans, PingFang SC, sans-serif" font-size="26" font-weight="700">Knowledge becomes memory.</text>
</svg>
