<svg width="1600" height="1000" viewBox="0 0 1600 1000" fill="none" xmlns="http://www.w3.org/2000/svg">
  <defs>
    <linearGradient id="bg" x1="110" y1="74" x2="1516" y2="955" gradientUnits="userSpaceOnUse">
      <stop stop-color="#FFFFFF"/>
      <stop offset="0.44" stop-color="#EEF6FF"/>
      <stop offset="1" stop-color="#F4F6F9"/>
    </linearGradient>
    <linearGradient id="orb" x1="542" y1="218" x2="1018" y2="736" gradientUnits="userSpaceOnUse">
      <stop stop-color="#55C7FF"/>
      <stop offset="0.46" stop-color="#007AFF"/>
      <stop offset="1" stop-color="#05070A"/>
    </linearGradient>
    <radialGradient id="warm" cx="0" cy="0" r="1" gradientUnits="userSpaceOnUse" gradientTransform="translate(1138 690) rotate(151.7) scale(425 336)">
      <stop stop-color="#FF6B35" stop-opacity="0.34"/>
      <stop offset="1" stop-color="#FF6B35" stop-opacity="0"/>
    </radialGradient>
    <radialGradient id="cool" cx="0" cy="0" r="1" gradientUnits="userSpaceOnUse" gradientTransform="translate(498 284) rotate(53.6) scale(540 428)">
      <stop stop-color="#007AFF" stop-opacity="0.24"/>
      <stop offset="1" stop-color="#007AFF" stop-opacity="0"/>
    </radialGradient>
    <filter id="panelShadow" x="110" y="102" width="1380" height="820" filterUnits="userSpaceOnUse" color-interpolation-filters="sRGB">
      <feDropShadow dx="0" dy="42" stdDeviation="60" flood-color="#203044" flood-opacity="0.16"/>
    </filter>
    <filter id="soft" x="0" y="0" width="200%" height="200%" color-interpolation-filters="sRGB">
      <feDropShadow dx="0" dy="24" stdDeviation="34" flood-color="#007AFF" flood-opacity="0.2"/>
    </filter>
  </defs>
  <rect width="1600" height="1000" fill="url(#bg)"/>
  <rect width="1600" height="1000" fill="url(#cool)"/>
  <rect width="1600" height="1000" fill="url(#warm)"/>
  <g opacity="0.52">
    <circle cx="335" cy="255" r="4" fill="#007AFF"/>
    <circle cx="501" cy="361" r="4" fill="#007AFF"/>
    <circle cx="652" cy="232" r="4" fill="#007AFF"/>
    <circle cx="840" cy="328" r="4" fill="#007AFF"/>
    <circle cx="1064" cy="255" r="4" fill="#FF6B35"/>
    <circle cx="1164" cy="488" r="4" fill="#FF6B35"/>
    <circle cx="950" cy="604" r="4" fill="#007AFF"/>
    <path d="M335 255L501 361L652 232L840 328L1064 255L1164 488L950 604L840 328L501 361" stroke="#8EBFFF" stroke-width="2"/>
  </g>
  <g filter="url(#panelShadow)">
    <rect x="180" y="150" width="1240" height="700" rx="60" fill="white" fill-opacity="0.72"/>
    <rect x="181" y="151" width="1238" height="698" rx="59" stroke="white" stroke-opacity="0.92" stroke-width="2"/>
  </g>
  <rect x="236" y="204" width="420" height="592" rx="42" fill="#05070A"/>
  <rect x="276" y="252" width="182" height="20" rx="10" fill="white" fill-opacity="0.28"/>
  <rect x="276" y="318" width="300" height="18" rx="9" fill="white" fill-opacity="0.16"/>
  <rect x="276" y="360" width="244" height="18" rx="9" fill="white" fill-opacity="0.16"/>
  <rect x="276" y="402" width="326" height="18" rx="9" fill="white" fill-opacity="0.16"/>
  <g filter="url(#soft)">
    <circle cx="790" cy="476" r="220" fill="url(#orb)"/>
  </g>
  <path d="M690 430C722 364 832 348 890 411C956 483 906 604 798 612C688 620 638 533 690 430Z" fill="white" fill-opacity="0.24"/>
  <path d="M702 482C768 444 840 446 900 492" stroke="white" stroke-width="12" stroke-linecap="round" opacity="0.56"/>
  <path d="M724 534C773 502 832 504 878 538" stroke="white" stroke-width="12" stroke-linecap="round" opacity="0.42"/>
  <rect x="944" y="244" width="338" height="118" rx="32" fill="white" fill-opacity="0.7"/>
  <rect x="978" y="284" width="150" height="16" rx="8" fill="#05070A" fill-opacity="0.18"/>
  <rect x="978" y="322" width="236" height="12" rx="6" fill="#007AFF" fill-opacity="0.28"/>
  <rect x="944" y="410" width="338" height="118" rx="32" fill="white" fill-opacity="0.54"/>
  <rect x="978" y="450" width="190" height="16" rx="8" fill="#05070A" fill-opacity="0.16"/>
  <rect x="978" y="488" width="212" height="12" rx="6" fill="#FF6B35" fill-opacity="0.34"/>
  <rect x="944" y="576" width="338" height="118" rx="32" fill="white" fill-opacity="0.62"/>
  <rect x="978" y="616" width="176" height="16" rx="8" fill="#05070A" fill-opacity="0.16"/>
  <rect x="978" y="654" width="248" height="12" rx="6" fill="#007AFF" fill-opacity="0.24"/>
  <text x="276" y="712" fill="white" font-family="Instrument Sans, PingFang SC, sans-serif" font-size="72" font-weight="800" letter-spacing="-4">Void Brain</text>
  <text x="276" y="754" fill="white" fill-opacity="0.56" font-family="IBM Plex Mono, monospace" font-size="18" font-weight="600" letter-spacing="3">LOCAL AI KNOWLEDGE OS</text>
  <text x="944" y="766" fill="#6E7681" font-family="Instrument Sans, PingFang SC, sans-serif" font-size="30" font-weight="700">Knowledge becomes memory.</text>
</svg>
