<svg width="1600" height="1000" viewBox="0 0 1600 1000" fill="none" xmlns="http://www.w3.org/2000/svg">
  <defs>
    <linearGradient id="bg" x1="0" y1="0" x2="1600" y2="1000" gradientUnits="userSpaceOnUse">
      <stop stop-color="#F8FAFD"/>
      <stop offset="0.48" stop-color="#EAF3FF"/>
      <stop offset="1" stop-color="#F7F8FA"/>
    </linearGradient>
    <linearGradient id="title" x1="310" y1="258" x2="1022" y2="472" gradientUnits="userSpaceOnUse">
      <stop stop-color="#05070A"/>
      <stop offset="0.58" stop-color="#007AFF"/>
      <stop offset="1" stop-color="#FF6B35"/>
    </linearGradient>
    <radialGradient id="blue" cx="0" cy="0" r="1" gradientUnits="userSpaceOnUse" gradientTransform="translate(1175 216) rotate(126.87) scale(510 620)">
      <stop stop-color="#007AFF" stop-opacity="0.42"/>
      <stop offset="1" stop-color="#007AFF" stop-opacity="0"/>
    </radialGradient>
    <radialGradient id="orange" cx="0" cy="0" r="1" gradientUnits="userSpaceOnUse" gradientTransform="translate(328 704) rotate(-29.8) scale(420 520)">
      <stop stop-color="#FF6B35" stop-opacity="0.3"/>
      <stop offset="1" stop-color="#FF6B35" stop-opacity="0"/>
    </radialGradient>
    <filter id="shadow" x="154" y="107" width="1292" height="814" filterUnits="userSpaceOnUse" color-interpolation-filters="sRGB">
      <feDropShadow dx="0" dy="38" stdDeviation="55" flood-color="#203044" flood-opacity="0.18"/>
    </filter>
    <filter id="cardShadow" x="0" y="0" width="200%" height="200%" color-interpolation-filters="sRGB">
      <feDropShadow dx="0" dy="24" stdDeviation="32" flood-color="#203044" flood-opacity="0.16"/>
    </filter>
  </defs>
  <rect width="1600" height="1000" fill="url(#bg)"/>
  <rect width="1600" height="1000" fill="url(#blue)"/>
  <rect width="1600" height="1000" fill="url(#orange)"/>
  <g opacity="0.38">
    <path d="M0 818C282 754 385 858 634 788C875 720 956 541 1252 565C1397 576 1499 635 1600 692" stroke="white" stroke-width="2"/>
    <path d="M0 244C255 173 373 285 566 230C790 167 884 70 1147 118C1356 156 1451 267 1600 238" stroke="white" stroke-width="2"/>
  </g>
  <g filter="url(#shadow)">
    <rect x="210" y="150" width="1180" height="700" rx="56" fill="white" fill-opacity="0.7"/>
    <rect x="211" y="151" width="1178" height="698" rx="55" stroke="white" stroke-opacity="0.9" stroke-width="2"/>
  </g>
  <rect x="252" y="192" width="1096" height="86" rx="43" fill="white" fill-opacity="0.72"/>
  <circle cx="306" cy="235" r="12" fill="#FF6B35"/>
  <circle cx="344" cy="235" r="12" fill="#FFCC4D"/>
  <circle cx="382" cy="235" r="12" fill="#30D158"/>
  <rect x="1032" y="220" width="244" height="30" rx="15" fill="#05070A" fill-opacity="0.92"/>
  <text x="310" y="430" fill="url(#title)" font-family="Instrument Sans, PingFang SC, sans-serif" font-size="122" font-weight="800" letter-spacing="-9">Void Architect</text>
  <text x="316" y="494" fill="#5F6B7A" font-family="Instrument Sans, PingFang SC, sans-serif" font-size="34" font-weight="600">Premium spatial app gallery for live projects</text>
  <g filter="url(#cardShadow)">
    <rect x="316" y="590" width="288" height="160" rx="34" fill="#05070A"/>
    <rect x="642" y="590" width="288" height="160" rx="34" fill="#007AFF"/>
    <rect x="968" y="590" width="288" height="160" rx="34" fill="#FFFFFF" fill-opacity="0.82"/>
  </g>
  <rect x="346" y="620" width="68" height="68" rx="22" fill="white" fill-opacity="0.14"/>
  <rect x="672" y="620" width="68" height="68" rx="22" fill="white" fill-opacity="0.26"/>
  <rect x="998" y="620" width="68" height="68" rx="22" fill="#FF6B35" fill-opacity="0.88"/>
  <rect x="346" y="708" width="158" height="14" rx="7" fill="white" fill-opacity="0.26"/>
  <rect x="672" y="708" width="158" height="14" rx="7" fill="white" fill-opacity="0.32"/>
  <rect x="998" y="708" width="158" height="14" rx="7" fill="#05070A" fill-opacity="0.16"/>
  <text x="320" y="804" fill="#6E7681" font-family="IBM Plex Mono, monospace" font-size="18" font-weight="600" letter-spacing="3">D3.6 · REAL PRODUCT COVERS</text>
</svg>
