<svg width="1600" height="1000" viewBox="0 0 1600 1000" fill="none" xmlns="http://www.w3.org/2000/svg">
  <defs>
    <linearGradient id="bg" x1="0" y1="0" x2="1600" y2="1000" gradientUnits="userSpaceOnUse">
      <stop stop-color="#FFFFFF"/>
      <stop offset="0.48" stop-color="#EEF6FF"/>
      <stop offset="1" stop-color="#F7F8FA"/>
    </linearGradient>
    <linearGradient id="hero" x1="242" y1="176" x2="1288" y2="790" gradientUnits="userSpaceOnUse">
      <stop stop-color="#FFFFFF" stop-opacity="0.92"/>
      <stop offset="0.54" stop-color="#F7FBFF" stop-opacity="0.86"/>
      <stop offset="1" stop-color="#FFFFFF" stop-opacity="0.72"/>
    </linearGradient>
    <linearGradient id="word" x1="406" y1="302" x2="944" y2="468" gradientUnits="userSpaceOnUse">
      <stop stop-color="#05070A"/>
      <stop offset="0.55" stop-color="#007AFF"/>
      <stop offset="1" stop-color="#FF6B35"/>
    </linearGradient>
    <radialGradient id="blue" cx="0" cy="0" r="1" gradientUnits="userSpaceOnUse" gradientTransform="translate(1188 218) rotate(132) scale(560 480)">
      <stop stop-color="#007AFF" stop-opacity="0.26"/>
      <stop offset="1" stop-color="#007AFF" stop-opacity="0"/>
    </radialGradient>
    <radialGradient id="orange" cx="0" cy="0" r="1" gradientUnits="userSpaceOnUse" gradientTransform="translate(348 748) rotate(-28) scale(510 390)">
      <stop stop-color="#FF6B35" stop-opacity="0.24"/>
      <stop offset="1" stop-color="#FF6B35" stop-opacity="0"/>
    </radialGradient>
    <filter id="shadow" x="118" y="90" width="1364" height="850" filterUnits="userSpaceOnUse" color-interpolation-filters="sRGB">
      <feDropShadow dx="0" dy="46" stdDeviation="64" flood-color="#203044" flood-opacity="0.18"/>
    </filter>
    <filter id="card" x="0" y="0" width="200%" height="200%" color-interpolation-filters="sRGB">
      <feDropShadow dx="0" dy="22" stdDeviation="30" flood-color="#203044" flood-opacity="0.13"/>
    </filter>
  </defs>
  <rect width="1600" height="1000" fill="url(#bg)"/>
  <rect width="1600" height="1000" fill="url(#blue)"/>
  <rect width="1600" height="1000" fill="url(#orange)"/>
  <g opacity="0.34">
    <path d="M-20 816C234 736 410 862 640 784C904 694 956 542 1260 568C1422 582 1516 642 1620 692" stroke="white" stroke-width="2"/>
    <path d="M-20 246C246 170 370 292 580 230C820 158 930 70 1160 118C1364 160 1450 270 1620 238" stroke="white" stroke-width="2"/>
  </g>
  <g filter="url(#shadow)">
    <rect x="190" y="142" width="1220" height="716" rx="62" fill="url(#hero)"/>
    <rect x="191" y="143" width="1218" height="714" rx="61" stroke="white" stroke-opacity="0.94" stroke-width="2"/>
  </g>
  <rect x="238" y="190" width="1124" height="82" rx="41" fill="white" fill-opacity="0.74"/>
  <circle cx="292" cy="231" r="12" fill="#FF6B35"/>
  <circle cx="330" cy="231" r="12" fill="#FFCC4D"/>
  <circle cx="368" cy="231" r="12" fill="#30D158"/>
  <rect x="1038" y="216" width="236" height="30" rx="15" fill="#05070A" fill-opacity="0.9"/>
  <rect x="127" y="0" width="1" height="1" fill="none"/>
  <text x="310" y="238" fill="#6E7681" font-family="IBM Plex Mono, monospace" font-size="13" font-weight="600" letter-spacing="3">VOIDARCHITECT.STUDIO</text>
  <text x="308" y="382" fill="#05070A" font-family="Instrument Sans, PingFang SC, sans-serif" font-size="24" font-weight="700" letter-spacing="4">SELECTED WORKS · PRODUCT GALLERY</text>
  <text x="306" y="488" fill="url(#word)" font-family="Instrument Sans, PingFang SC, sans-serif" font-size="136" font-weight="800" letter-spacing="-11">Void Architect</text>
  <text x="314" y="550" fill="#5F6B7A" font-family="Instrument Sans, PingFang SC, sans-serif" font-size="36" font-weight="650">A spatial storefront for AI products in formation.</text>
  <g filter="url(#card)">
    <rect x="314" y="620" width="252" height="146" rx="32" fill="#05070A"/>
    <rect x="596" y="620" width="252" height="146" rx="32" fill="#007AFF"/>
    <rect x="878" y="620" width="252" height="146" rx="32" fill="#FFFFFF" fill-opacity="0.86"/>
    <rect x="1160" y="620" width="156" height="146" rx="32" fill="#FF6B35" fill-opacity="0.88"/>
  </g>
  <rect x="346" y="650" width="58" height="58" rx="18" fill="white" fill-opacity="0.14"/>
  <rect x="628" y="650" width="58" height="58" rx="18" fill="white" fill-opacity="0.24"/>
  <rect x="910" y="650" width="58" height="58" rx="18" fill="#FF6B35" fill-opacity="0.82"/>
  <rect x="1192" y="650" width="58" height="58" rx="18" fill="white" fill-opacity="0.26"/>
  <text x="346" y="736" fill="white" fill-opacity="0.82" font-family="IBM Plex Mono, monospace" font-size="13" font-weight="600" letter-spacing="2">STUDIO OS</text>
  <text x="628" y="736" fill="white" fill-opacity="0.82" font-family="IBM Plex Mono, monospace" font-size="13" font-weight="600" letter-spacing="2">KNOWLEDGE</text>
  <text x="910" y="736" fill="#05070A" fill-opacity="0.58" font-family="IBM Plex Mono, monospace" font-size="13" font-weight="600" letter-spacing="2">COCKPIT</text>
  <text x="1192" y="736" fill="white" fill-opacity="0.82" font-family="IBM Plex Mono, monospace" font-size="13" font-weight="600" letter-spacing="2">GAME</text>
  <rect x="314" y="802" width="412" height="16" rx="8" fill="#05070A" fill-opacity="0.12"/>
  <rect x="314" y="802" width="248" height="16" rx="8" fill="#007AFF" fill-opacity="0.42"/>
</svg>
