<svg width="1600" height="1000" viewBox="0 0 1600 1000" fill="none" xmlns="http://www.w3.org/2000/svg">
  <defs>
    <linearGradient id="bg" x1="0" y1="0" x2="1600" y2="1000" gradientUnits="userSpaceOnUse"><stop stop-color="#FFFFFF"/><stop offset="0.46" stop-color="#F5F8FC"/><stop offset="1" stop-color="#E9EEF5"/></linearGradient>
    <linearGradient id="app" x1="216" y1="182" x2="1360" y2="826" gradientUnits="userSpaceOnUse"><stop stop-color="#05070A"/><stop offset="0.54" stop-color="#143766"/><stop offset="1" stop-color="#007AFF"/></linearGradient>
    <radialGradient id="haloA" cx="0" cy="0" r="1" gradientUnits="userSpaceOnUse" gradientTransform="translate(1250 180) rotate(135) scale(560 420)"><stop stop-color="#143766" stop-opacity="0.25"/><stop offset="1" stop-color="#143766" stop-opacity="0"/></radialGradient>
    <radialGradient id="haloB" cx="0" cy="0" r="1" gradientUnits="userSpaceOnUse" gradientTransform="translate(290 790) rotate(-25) scale(460 320)"><stop stop-color="#FF6B35" stop-opacity="0.18"/><stop offset="1" stop-color="#FF6B35" stop-opacity="0"/></radialGradient>
    <filter id="shadow" x="100" y="80" width="1400" height="860" filterUnits="userSpaceOnUse" color-interpolation-filters="sRGB"><feDropShadow dx="0" dy="52" stdDeviation="62" flood-color="#203044" flood-opacity="0.20"/></filter>
  </defs>
  <rect width="1600" height="1000" fill="url(#bg)"/>
  <rect width="1600" height="1000" fill="url(#haloA)"/>
  <rect width="1600" height="1000" fill="url(#haloB)"/>
  <g filter="url(#shadow)">
    <rect x="170" y="126" width="1260" height="748" rx="66" fill="white" fill-opacity="0.82"/>
    <rect x="171" y="127" width="1258" height="746" rx="65" stroke="white" stroke-opacity="0.95" stroke-width="2"/>
  </g>
  <rect x="220" y="178" width="1160" height="644" rx="50" fill="url(#app)"/>
  <rect x="220" y="178" width="1160" height="72" rx="50" fill="white" fill-opacity="0.16"/>
  <circle cx="274" cy="215" r="10" fill="#FF5F57"/><circle cx="310" cy="215" r="10" fill="#FFBD2E"/><circle cx="346" cy="215" r="10" fill="#28C840"/>
  <text x="408" y="222" fill="#FFFFFF" fill-opacity="0.62" font-family="IBM Plex Mono, monospace" font-size="17" font-weight="800" letter-spacing="3">Memory Recorder</text>
  <rect x="250" y="280" width="370" height="488" rx="38" fill="white" fill-opacity="0.14" stroke="white" stroke-opacity="0.24" stroke-width="1.5"/>
  <text x="280" y="318" fill="#FFFFFF" fill-opacity="0.62" font-family="IBM Plex Mono, monospace" font-size="15" font-weight="800" letter-spacing="2">MEMORY CARD</text>
  <rect x="260" y="330" width="332" height="56" rx="20" fill="#FFFFFF" fill-opacity="0.78"/><rect x="286" y="348" width="34" height="20" rx="10" fill="#143766" fill-opacity="0.22"/><text x="340" y="366" fill="#162033" fill-opacity="0.84" font-family="Instrument Sans, PingFang SC, sans-serif" font-size="21" font-weight="700" letter-spacing="0">Goal</text><rect x="260" y="414" width="332" height="56" rx="20" fill="#FFFFFF" fill-opacity="0.78"/><rect x="286" y="432" width="34" height="20" rx="10" fill="#143766" fill-opacity="0.22"/><text x="340" y="450" fill="#162033" fill-opacity="0.84" font-family="Instrument Sans, PingFang SC, sans-serif" font-size="21" font-weight="700" letter-spacing="0">Evidence</text><rect x="260" y="498" width="332" height="56" rx="20" fill="#FFFFFF" fill-opacity="0.78"/><rect x="286" y="516" width="34" height="20" rx="10" fill="#143766" fill-opacity="0.22"/><text x="340" y="534" fill="#162033" fill-opacity="0.84" font-family="Instrument Sans, PingFang SC, sans-serif" font-size="21" font-weight="700" letter-spacing="0">Decision</text><rect x="260" y="582" width="332" height="56" rx="20" fill="#FFFFFF" fill-opacity="0.78"/><rect x="286" y="600" width="34" height="20" rx="10" fill="#143766" fill-opacity="0.22"/><text x="340" y="618" fill="#162033" fill-opacity="0.84" font-family="Instrument Sans, PingFang SC, sans-serif" font-size="21" font-weight="700" letter-spacing="0">Follow-up</text>
  <rect x="650" y="286" width="610" height="402" rx="42" fill="white" fill-opacity="0.12" stroke="white" stroke-opacity="0.25" stroke-width="1.5"/>
  <rect x="682" y="366" width="128" height="172" rx="30" fill="#FFFFFF" fill-opacity="0.18" stroke="#FFFFFF" stroke-width="1.4"/><rect x="708" y="406" width="76" height="12" rx="6" fill="#FFFFFF" fill-opacity="0.52"/><rect x="708" y="434" width="52" height="10" rx="5" fill="#FFFFFF" fill-opacity="0.28"/><rect x="858" y="412" width="128" height="126" rx="30" fill="#FFFFFF" fill-opacity="0.26" stroke="#FFFFFF" stroke-width="1.4"/><rect x="884" y="452" width="76" height="12" rx="6" fill="#FFFFFF" fill-opacity="0.52"/><rect x="884" y="480" width="52" height="10" rx="5" fill="#FFFFFF" fill-opacity="0.28"/><rect x="1034" y="334" width="128" height="204" rx="30" fill="#FFFFFF" fill-opacity="0.33999999999999997" stroke="#FFFFFF" stroke-width="1.4"/><rect x="1060" y="374" width="76" height="12" rx="6" fill="#FFFFFF" fill-opacity="0.52"/><rect x="1060" y="402" width="52" height="10" rx="5" fill="#FFFFFF" fill-opacity="0.28"/>
  <circle cx="684" cy="652" r="8" fill="white" fill-opacity="0.28"/><rect x="700" y="648" width="56" height="8" rx="4" fill="#FFFFFF" fill-opacity="0.16"/><circle cx="772" cy="652" r="8" fill="white" fill-opacity="0.38"/><rect x="788" y="648" width="56" height="8" rx="4" fill="#FFFFFF" fill-opacity="0.2"/><circle cx="860" cy="652" r="8" fill="white" fill-opacity="0.48"/><rect x="876" y="648" width="56" height="8" rx="4" fill="#FFFFFF" fill-opacity="0.24"/><circle cx="948" cy="652" r="8" fill="white" fill-opacity="0.58"/><rect x="964" y="648" width="56" height="8" rx="4" fill="#FFFFFF" fill-opacity="0.28"/><circle cx="1036" cy="652" r="8" fill="white" fill-opacity="0.68"/><rect x="1052" y="648" width="56" height="8" rx="4" fill="#FFFFFF" fill-opacity="0.32"/><circle cx="1124" cy="652" r="8" fill="white" fill-opacity="0.78"/>
  <text x="650" y="738" fill="#FFFFFF" fill-opacity="1" font-family="Instrument Sans, PingFang SC, sans-serif" font-size="56" font-weight="850" letter-spacing="-2">AI Memory Summary</text>
  <text x="654" y="782" fill="#FFFFFF" fill-opacity="0.66" font-family="Instrument Sans, PingFang SC, sans-serif" font-size="21" font-weight="650" letter-spacing="0">Session compressed into memory</text>
  <rect x="1090" y="202" width="244" height="36" rx="18" fill="white" fill-opacity="0.18"/>
  <text x="1120" y="226" fill="#FFFFFF" fill-opacity="0.72" font-family="IBM Plex Mono, monospace" font-size="13" font-weight="800" letter-spacing="2">APP STORE SCREEN</text>
</svg>
